<svg width="25" height="25" viewBox="0 0 25 25" fill="none" xmlns="http://www.w3.org/2000/svg">
<rect width="25" height="25" rx="12.5" fill="#F6BA6C"/>
<path d="M13.9688 17.7188H8.34375V16.5469H13.9883C14.8997 16.5469 15.6842 16.2441 16.3418 15.6387C16.9993 15.0332 17.3281 14.2812 17.3281 13.3828C17.3281 12.4844 16.9993 11.7324 16.3418 11.127C15.6842 10.5215 14.8997 10.2187 13.9883 10.2187H8.22656L10.4531 12.4453L9.63281 13.2656L6 9.63281L9.63281 6L10.4531 6.82031L8.22656 9.04688H13.9688C15.2057 9.04688 16.2702 9.46354 17.1621 10.2969C18.054 11.1302 18.5 12.1589 18.5 13.3828C18.5 14.6068 18.054 15.6354 17.1621 16.4688C16.2702 17.3021 15.2057 17.7188 13.9688 17.7188Z" fill="white"/>
</svg>
